<svg xmlns="http://www.w3.org/2000/svg" width="60" height="60"><path fill="#02a0dd" d="M60 42v6a1 1 0 01-1 1h-1v11h-2V49h-7v11h-2V24.3l-3.832-5.746A1.006 1.006 0 0143 18V9.477l-3.23-1.291a6.098 6.098 0 01-.77-.38V18a1 1 0 01-1 1H22a1 1 0 01-1-1V7.807a6.26 6.26 0 01-.771.379l-3.23 1.29V18a.992.992 0 01-.167.551L13 24.3V60h-2V49H4v11H2V49H1a1 1 0 01-1-1v-6a1 1 0 011-1h1V20.77a10.95 10.95 0 016.915-10.214l10.57-4.228A3.98 3.98 0 0022 2.614V0h2v2.615a5.98 5.98 0 01-.872 3.1L30 12.585l6.872-6.872a5.98 5.98 0 01-.872-3.1V0h2v2.615a3.98 3.98 0 002.515 3.714l10.57 4.228A10.95 10.95 0 0158 20.77V41h1a1 1 0 011 1zm-49 1H2v4h9zm4-32.724l-5.342 2.137A8.958 8.958 0 004 20.77V41h7V24c0-.197.06-.39.168-.553L15 17.7zm14 4.14l-6-6V17h6zm8-6.003l-6 6V17h6zM49 24v17h7V20.77a8.958 8.958 0 00-5.658-8.353L45 10.28v7.42l3.832 5.745A1 1 0 0149 24zm9 19h-9v4h9zM18 20h2v2h-2zm22 0h2v2h-2zm-5 22h2v2h-2zm8-7v4a1 1 0 01-1 1h-1v12a6.006 6.006 0 01-6 6H25a6.006 6.006 0 01-6-6V40h-1a1 1 0 01-1-1v-4a1 1 0 011-1h24a1 1 0 011 1zm-4 5H21v2h12v2H21v8a4 4 0 004 4h10a4 4 0 004-4zm2-4H19v2h22z"/></svg>