<svg xmlns="http://www.w3.org/2000/svg" width="60" height="60"><path fill="#02a0dd" d="M60 13v42a5.006 5.006 0 01-5 5H5a5.006 5.006 0 01-5-5V18c0-.231.08-.455.226-.634L9 6.642V.999a1 1 0 011-1h7a1 1 0 011 1v5.643l8.774 10.724A.998.998 0 0127 18v4h6v-4c0-.222.074-.438.21-.614l7-9A1 1 0 0141 8h2V3a1 1 0 011-1h10a1 1 0 011 1v5a5.006 5.006 0 015 5zM45 8h8V4h-8zM25 28v-4.001h-2v6h14v-6h-2v4h-2v-4h-2v4h-2v-4h-2v4zM11 6h5V2h-5zM2 24h19v-1a1 1 0 011-1h3v-3.644L16.526 8h-6.052L2 18.356zm17 29H2v2a3 3 0 003 3h14zm1-23h1v-4H2v21h10v2H2v2h17V30.999a1 1 0 011-1zm19 2H21v26h18zm19 21H41v5h14a3 3 0 003-3zm0-34H35v3h3a1 1 0 011 1v7h1a1 1 0 011 .999v16h11v2H41v2h17zm0-6a3 3 0 00-3-3H41.489l-5.444 7H58zM37 44a7 7 0 11-7-7 7.008 7.008 0 017 7zm-2.175 1.242a4.173 4.173 0 01-4.782-.785 2.184 2.184 0 00-3.086 0l-1.537 1.536A5.001 5.001 0 0030 49a5 5 0 004.825-3.757zm0-2.483A5 5 0 0030 39a4.99 4.99 0 00-4.957 4.543l.5-.5a4.186 4.186 0 015.914 0 2.235 2.235 0 003.086 0zM14 47h2v2h-2zm40 0h2v2h-2zm1-24v7a1 1 0 01-1 1h-7a1 1 0 01-1-1v-7a1 1 0 011-1h7a1 1 0 011 1zm-2 1h-5v5h5z"/></svg>